<svg width="26" height="25" viewBox="0 0 26 25" fill="none" xmlns="http://www.w3.org/2000/svg">
<path d="M3.57153 9.78474V22.4276C3.57153 22.6549 3.66184 22.8729 3.82258 23.0337C3.98333 23.1944 4.20135 23.2847 4.42868 23.2847H9.57153V15.999C9.57153 15.658 9.70699 15.331 9.94811 15.0899C10.1892 14.8488 10.5163 14.7133 10.8572 14.7133H15.143C15.484 14.7133 15.811 14.8488 16.0521 15.0899C16.2932 15.331 16.4287 15.658 16.4287 15.999V23.2847H21.5715C21.7989 23.2847 22.0169 23.1944 22.1776 23.0337C22.3384 22.8729 22.4287 22.6549 22.4287 22.4276V9.78474" fill="white"/>
<path d="M3.57153 9.78474V22.4276C3.57153 22.6549 3.66184 22.8729 3.82258 23.0337C3.98333 23.1944 4.20135 23.2847 4.42868 23.2847H9.57153V15.999C9.57153 15.658 9.70699 15.331 9.94811 15.0899C10.1892 14.8488 10.5163 14.7133 10.8572 14.7133H15.143C15.484 14.7133 15.811 14.8488 16.0521 15.0899C16.2932 15.331 16.4287 15.658 16.4287 15.999V23.2847H21.5715C21.7989 23.2847 22.0169 23.1944 22.1776 23.0337C22.3384 22.8729 22.4287 22.6549 22.4287 22.4276V9.78474" stroke="white" stroke-width="2" stroke-linecap="round" stroke-linejoin="round"/>
<path d="M25 12.1419L13.5834 1.21335C13.3155 0.930493 12.6893 0.927278 12.4166 1.21335L1 12.1419H25ZM20.7143 8.01692V1.85621H18.1429V5.55264" fill="white"/>
<path d="M20.7143 8.01692V1.85621H18.1429V5.55264M25 12.1419L13.5834 1.21335C13.3155 0.930493 12.6893 0.927278 12.4166 1.21335L1 12.1419H25Z" stroke="white" stroke-width="2" stroke-linecap="round" stroke-linejoin="round"/>
</svg>
