<svg width="26" height="25" viewBox="0 0 26 25" fill="none" xmlns="http://www.w3.org/2000/svg">
<path d="M3.57145 3.85625H1.85715C1.38376 3.85625 1 4.24001 1 4.7134V22.7135C1 23.1869 1.38376 23.5707 1.85715 23.5707H3.57145C4.04484 23.5707 4.4286 23.1869 4.4286 22.7135V4.7134C4.4286 4.24001 4.04484 3.85625 3.57145 3.85625Z" stroke="#ffffff" stroke-width="2" stroke-linejoin="round"/>
<path d="M5.28589 20.1421H12.1431M5.28589 10.7134H12.1431H5.28589Z" stroke="#ffffff" stroke-width="2" stroke-linecap="round" stroke-linejoin="round"/>
<path d="M11.2859 7.2848H6.14304C5.66965 7.2848 5.28589 7.66856 5.28589 8.14195V22.7135C5.28589 23.1869 5.66965 23.5706 6.14304 23.5706H11.2859C11.7593 23.5706 12.1431 23.1869 12.1431 22.7135V8.14195C12.1431 7.66856 11.7593 7.2848 11.2859 7.2848Z" stroke="#ffffff" stroke-width="2" stroke-linejoin="round"/>
<path d="M17.286 1.28479H13.8574C13.384 1.28479 13.0002 1.66855 13.0002 2.14194V22.7135C13.0002 23.1869 13.384 23.5707 13.8574 23.5707H17.286C17.7594 23.5707 18.1431 23.1869 18.1431 22.7135V2.14194C18.1431 1.66855 17.7594 1.28479 17.286 1.28479Z" stroke="#ffffff" stroke-width="2" stroke-linejoin="round"/>
<path d="M21.9176 3.8621L19.7533 4.08978C19.1576 4.15246 18.7258 4.70961 18.7927 5.32729L20.6635 22.5555C20.731 23.1731 21.2726 23.6269 21.8683 23.5648L24.0326 23.3371C24.6283 23.2744 25.0601 22.7172 24.9931 22.0996L23.1251 4.87408C23.0549 4.25371 22.5133 3.79942 21.9176 3.8621Z" stroke="#ffffff" stroke-width="2" stroke-linejoin="round"/>
</svg>
