<svg width="85" height="62" viewBox="0 0 85 62" fill="none" xmlns="http://www.w3.org/2000/svg">
<path d="M12.2148 36.324C10.3188 36.324 8.55478 36.108 6.92278 35.676C5.29078 35.22 3.95878 34.584 2.92678 33.768C2.56678 33.504 2.30278 33.228 2.13478 32.94C1.99078 32.628 1.91878 32.244 1.91878 31.788C1.91878 31.188 2.09878 30.66 2.45878 30.204C2.84278 29.748 3.27478 29.52 3.75478 29.52C4.01878 29.52 4.27078 29.568 4.51078 29.664C4.77478 29.736 5.08678 29.88 5.44678 30.096C6.47878 30.744 7.52278 31.224 8.57878 31.536C9.63478 31.824 10.7988 31.968 12.0708 31.968C13.6548 31.968 14.8668 31.704 15.7068 31.176C16.5468 30.648 16.9668 29.892 16.9668 28.908C16.9668 28.164 16.5708 27.564 15.7788 27.108C15.0108 26.652 13.6308 26.22 11.6388 25.812C9.40678 25.356 7.61878 24.804 6.27478 24.156C4.95478 23.508 3.98278 22.704 3.35878 21.744C2.75878 20.784 2.45878 19.62 2.45878 18.252C2.45878 16.74 2.89078 15.384 3.75478 14.184C4.64278 12.96 5.85478 12.012 7.39078 11.34C8.95078 10.644 10.7028 10.296 12.6468 10.296C16.0548 10.296 18.8628 11.148 21.0708 12.852C21.4308 13.14 21.6828 13.44 21.8268 13.752C21.9948 14.04 22.0788 14.4 22.0788 14.832C22.0788 15.432 21.8868 15.96 21.5028 16.416C21.1428 16.872 20.7228 17.1 20.2428 17.1C19.9788 17.1 19.7268 17.064 19.4868 16.992C19.2708 16.92 18.9588 16.764 18.5508 16.524C17.5668 15.9 16.6548 15.432 15.8148 15.12C14.9988 14.808 13.9548 14.652 12.6828 14.652C11.2188 14.652 10.0668 14.94 9.22678 15.516C8.38678 16.068 7.96678 16.836 7.96678 17.82C7.96678 18.396 8.12278 18.876 8.43478 19.26C8.77078 19.62 9.31078 19.944 10.0548 20.232C10.8228 20.52 11.9028 20.82 13.2948 21.132C16.5588 21.852 18.8988 22.776 20.3148 23.904C21.7548 25.032 22.4748 26.58 22.4748 28.548C22.4748 30.084 22.0428 31.44 21.1788 32.616C20.3388 33.792 19.1388 34.704 17.5788 35.352C16.0428 36 14.2548 36.324 12.2148 36.324Z" fill="#E2E2E2"/>
<path d="M28.0503 36.144C27.4903 36.144 27.0423 35.992 26.7063 35.688C26.3863 35.384 26.2263 34.968 26.2263 34.44V26.04C26.2103 25.48 26.3543 25.04 26.6583 24.72C26.9623 24.384 27.3783 24.216 27.9062 24.216H35.9463C36.5063 24.2 36.9463 24.352 37.2663 24.672C37.6023 24.976 37.7703 25.384 37.7703 25.896V34.44C37.7703 34.968 37.6023 35.384 37.2663 35.688C36.9463 35.992 36.5063 36.144 35.9463 36.144C35.3863 36.144 34.9463 35.992 34.6263 35.688C34.3063 35.384 34.1463 34.968 34.1463 34.44V26.928H29.8503V34.44C29.8503 34.968 29.6903 35.384 29.3703 35.688C29.0503 35.992 28.6103 36.144 28.0503 36.144ZM46.1419 36.192C44.8939 36.192 43.7979 35.944 42.8539 35.448C41.9099 34.936 41.1819 34.224 40.6699 33.312C40.1579 32.384 39.9019 31.296 39.9019 30.048C39.9019 28.8 40.1579 27.72 40.6699 26.808C41.1819 25.88 41.9099 25.168 42.8539 24.672C43.7979 24.176 44.8939 23.928 46.1419 23.928C47.3899 23.928 48.4859 24.176 49.4299 24.672C50.3739 25.168 51.1019 25.88 51.6139 26.808C52.1259 27.72 52.3819 28.8 52.3819 30.048C52.3819 31.296 52.1259 32.384 51.6139 33.312C51.1019 34.224 50.3739 34.936 49.4299 35.448C48.4859 35.944 47.3899 36.192 46.1419 36.192ZM46.1419 33.432C47.9019 33.432 48.7819 32.304 48.7819 30.048C48.7819 28.912 48.5499 28.064 48.0859 27.504C47.6379 26.944 46.9899 26.664 46.1419 26.664C44.3819 26.664 43.5019 27.792 43.5019 30.048C43.5019 32.304 44.3819 33.432 46.1419 33.432ZM59.0061 36.144C58.4461 36.144 58.0061 35.992 57.6861 35.688C57.3661 35.384 57.2061 34.968 57.2061 34.44V26.928H54.8541C54.4221 26.928 54.0781 26.808 53.8221 26.568C53.5661 26.312 53.4381 25.984 53.4381 25.584C53.4381 25.168 53.5661 24.84 53.8221 24.6C54.0781 24.344 54.4221 24.216 54.8541 24.216H63.1821C63.6141 24.216 63.9581 24.344 64.2141 24.6C64.4701 24.84 64.5981 25.168 64.5981 25.584C64.5981 25.984 64.4701 26.312 64.2141 26.568C63.9581 26.808 63.6141 26.928 63.1821 26.928H60.8301V34.44C60.8301 34.968 60.6621 35.384 60.3261 35.688C60.0061 35.992 59.5661 36.144 59.0061 36.144ZM68.6457 36.144C68.1177 36.144 67.6777 36 67.3257 35.712C66.9897 35.424 66.8217 35 66.8217 34.44V25.68C66.8217 25.12 66.9977 24.696 67.3497 24.408C67.7017 24.12 68.1337 23.976 68.6457 23.976C69.1577 23.976 69.5817 24.12 69.9177 24.408C70.2697 24.696 70.4457 25.12 70.4457 25.68V34.44C70.4457 35 70.2697 35.424 69.9177 35.712C69.5817 36 69.1577 36.144 68.6457 36.144ZM68.6457 22.056C68.0057 22.056 67.5017 21.896 67.1337 21.576C66.7657 21.24 66.5817 20.792 66.5817 20.232C66.5817 19.672 66.7657 19.232 67.1337 18.912C67.5017 18.592 68.0057 18.432 68.6457 18.432C69.2697 18.432 69.7657 18.6 70.1337 18.936C70.5177 19.256 70.7097 19.688 70.7097 20.232C70.7097 20.792 70.5257 21.24 70.1577 21.576C69.7897 21.896 69.2857 22.056 68.6457 22.056ZM74.9721 36C74.4121 36.016 73.9641 35.872 73.6281 35.568C73.3081 35.264 73.1481 34.848 73.1481 34.32V26.04C73.1321 25.48 73.2761 25.04 73.5801 24.72C73.9001 24.384 74.3161 24.216 74.8281 24.216H79.4361C80.8121 24.216 81.8921 24.488 82.6761 25.032C83.4601 25.576 83.8521 26.32 83.8521 27.264C83.8521 27.872 83.6681 28.416 83.3001 28.896C82.9481 29.36 82.4521 29.696 81.8121 29.904C83.3961 30.32 84.1881 31.24 84.1881 32.664C84.1881 33.656 83.7641 34.464 82.9161 35.088C82.0681 35.696 80.9321 36 79.5081 36H74.9721ZM78.7401 28.872C79.7801 28.872 80.3001 28.488 80.3001 27.72C80.3001 27.32 80.1721 27.032 79.9161 26.856C79.6601 26.68 79.2601 26.592 78.7161 26.592H76.7481V28.872H78.7401ZM78.7881 33.648C79.9721 33.648 80.5641 33.224 80.5641 32.376C80.5641 31.928 80.4281 31.6 80.1561 31.392C79.9001 31.184 79.4921 31.08 78.9321 31.08H76.7481V33.648H78.7881Z" fill="#E2E2E2"/>
<path d="M9.95588 57.56C9.42788 57.56 9.00388 57.4 8.68388 57.08C8.36388 56.76 8.20388 56.344 8.20388 55.832V53.144C7.01988 53.128 5.95588 52.864 5.01188 52.352C4.06788 51.84 3.32388 51.136 2.77988 50.24C2.25188 49.328 1.98788 48.288 1.98788 47.12C1.98788 45.952 2.25188 44.92 2.77988 44.024C3.32388 43.112 4.06788 42.4 5.01188 41.888C5.95588 41.376 7.01988 41.112 8.20388 41.096V37.568C8.20388 37.056 8.36388 36.64 8.68388 36.32C9.00388 36 9.42788 35.84 9.95588 35.84C10.4679 35.84 10.8839 36 11.2039 36.32C11.5239 36.64 11.6839 37.056 11.6839 37.568V41.096C12.8679 41.112 13.9319 41.376 14.8759 41.888C15.8359 42.4 16.5799 43.112 17.1079 44.024C17.6519 44.92 17.9239 45.952 17.9239 47.12C17.9239 48.288 17.6519 49.328 17.1079 50.24C16.5799 51.136 15.8359 51.84 14.8759 52.352C13.9319 52.864 12.8679 53.128 11.6839 53.144V55.832C11.6839 56.344 11.5239 56.76 11.2039 57.08C10.8839 57.4 10.4679 57.56 9.95588 57.56ZM8.22787 43.688C7.26788 43.72 6.54788 44.032 6.06788 44.624C5.60388 45.216 5.37188 46.048 5.37188 47.12C5.37188 48.192 5.60388 49.024 6.06788 49.616C6.54788 50.208 7.26788 50.52 8.22787 50.552V43.688ZM11.6599 50.552C12.6199 50.52 13.3399 50.208 13.8199 49.616C14.2999 49.024 14.5399 48.192 14.5399 47.12C14.5399 46.048 14.2999 45.216 13.8199 44.624C13.3399 44.032 12.6199 43.72 11.6599 43.688V50.552ZM27.9226 40.928C29.6506 40.928 30.9306 41.352 31.7626 42.2C32.5946 43.032 33.0106 44.312 33.0106 46.04V51.464C33.0106 51.992 32.8586 52.408 32.5546 52.712C32.2506 53 31.8266 53.144 31.2826 53.144C30.7706 53.144 30.3546 52.992 30.0346 52.688C29.7306 52.368 29.5786 51.96 29.5786 51.464V51.296C29.3386 51.888 28.9386 52.352 28.3786 52.688C27.8186 53.024 27.1626 53.192 26.4106 53.192C25.6106 53.192 24.8826 53.032 24.2266 52.712C23.5866 52.392 23.0746 51.944 22.6906 51.368C22.3226 50.792 22.1386 50.152 22.1386 49.448C22.1386 48.584 22.3546 47.904 22.7866 47.408C23.2346 46.912 23.9466 46.552 24.9226 46.328C25.8986 46.104 27.2346 45.992 28.9306 45.992H29.5546V45.56C29.5546 44.888 29.4026 44.4 29.0986 44.096C28.8106 43.792 28.3226 43.64 27.6346 43.64C26.9466 43.64 25.9546 43.88 24.6586 44.36C24.2906 44.536 23.9786 44.624 23.7226 44.624C23.3706 44.624 23.0906 44.504 22.8826 44.264C22.6746 44.008 22.5706 43.68 22.5706 43.28C22.5706 42.96 22.6426 42.696 22.7866 42.488C22.9306 42.28 23.1626 42.088 23.4826 41.912C24.0426 41.608 24.7226 41.368 25.5226 41.192C26.3386 41.016 27.1386 40.928 27.9226 40.928ZM27.2026 50.696C27.9066 50.696 28.4746 50.464 28.9066 50C29.3386 49.52 29.5546 48.904 29.5546 48.152V47.744H29.1466C27.8506 47.744 26.9386 47.848 26.4106 48.056C25.8986 48.264 25.6426 48.64 25.6426 49.184C25.6426 49.632 25.7866 50 26.0746 50.288C26.3786 50.56 26.7546 50.696 27.2026 50.696ZM45.8521 42.464C46.2521 41.872 46.6201 41.48 46.9561 41.288C47.2921 41.08 47.7561 40.976 48.3481 40.976C48.9081 40.976 49.3481 41.128 49.6681 41.432C49.9881 41.736 50.1481 42.144 50.1481 42.656V51.392C50.1481 51.92 49.9881 52.344 49.6681 52.664C49.3641 52.984 48.9561 53.144 48.4441 53.144C47.9321 53.144 47.5161 52.984 47.1961 52.664C46.8921 52.344 46.7401 51.92 46.7401 51.392V45.584L42.3721 51.752C41.9881 52.312 41.6201 52.688 41.2681 52.88C40.9161 53.056 40.4841 53.144 39.9721 53.144C39.4121 53.144 38.9641 53 38.6281 52.712C38.3081 52.408 38.1481 51.992 38.1481 51.464V42.728C38.1481 42.2 38.3081 41.776 38.6281 41.456C38.9481 41.136 39.3641 40.976 39.8761 40.976C40.3881 40.976 40.7961 41.136 41.1001 41.456C41.4201 41.776 41.5801 42.2 41.5801 42.728V48.512L45.8521 42.464ZM44.0521 38.96C42.9321 38.96 41.9961 38.72 41.2441 38.24C40.5081 37.76 39.9881 37.104 39.6841 36.272C39.6361 36.128 39.6121 35.984 39.6121 35.84C39.6121 35.552 39.7161 35.312 39.9241 35.12C40.1321 34.928 40.3721 34.832 40.6441 34.832C41.0121 34.832 41.3081 35.016 41.5321 35.384C41.7881 35.848 42.1401 36.216 42.5881 36.488C43.0361 36.744 43.5241 36.872 44.0521 36.872C44.5641 36.872 45.0361 36.736 45.4681 36.464C45.9161 36.192 46.2921 35.832 46.5961 35.384C46.8201 35.032 47.1241 34.856 47.5081 34.856C47.7801 34.856 48.0121 34.952 48.2041 35.144C48.4121 35.32 48.5161 35.552 48.5161 35.84C48.4841 36.032 48.4521 36.176 48.4201 36.272C48.1161 37.104 47.5961 37.76 46.8601 38.24C46.1241 38.72 45.1881 38.96 44.0521 38.96ZM57.144 53.144C56.584 53.144 56.136 52.992 55.8 52.688C55.48 52.384 55.32 51.968 55.32 51.44V42.68C55.32 42.152 55.48 41.736 55.8 41.432C56.136 41.128 56.584 40.976 57.144 40.976C57.704 40.976 58.144 41.128 58.464 41.432C58.784 41.736 58.944 42.152 58.944 42.68V45.608H63.408V42.68C63.408 42.152 63.568 41.736 63.888 41.432C64.208 41.128 64.648 40.976 65.208 40.976C65.768 40.976 66.208 41.128 66.528 41.432C66.864 41.736 67.032 42.152 67.032 42.68L67.08 51.296C67.08 51.856 66.912 52.304 66.576 52.64C66.24 52.976 65.792 53.144 65.232 53.144C64.672 53.144 64.224 52.976 63.888 52.64C63.568 52.304 63.408 51.856 63.408 51.296V48.392H58.944V51.44C58.944 51.968 58.784 52.384 58.464 52.688C58.144 52.992 57.704 53.144 57.144 53.144ZM77.9466 53.192C76.6986 53.192 75.6026 52.944 74.6586 52.448C73.7146 51.936 72.9866 51.224 72.4746 50.312C71.9626 49.384 71.7066 48.296 71.7066 47.048C71.7066 45.8 71.9626 44.72 72.4746 43.808C72.9866 42.88 73.7146 42.168 74.6586 41.672C75.6026 41.176 76.6986 40.928 77.9466 40.928C79.1946 40.928 80.2906 41.176 81.2346 41.672C82.1786 42.168 82.9066 42.88 83.4186 43.808C83.9306 44.72 84.1866 45.8 84.1866 47.048C84.1866 48.296 83.9306 49.384 83.4186 50.312C82.9066 51.224 82.1786 51.936 81.2346 52.448C80.2906 52.944 79.1946 53.192 77.9466 53.192ZM77.9466 50.432C79.7066 50.432 80.5866 49.304 80.5866 47.048C80.5866 45.912 80.3546 45.064 79.8906 44.504C79.4426 43.944 78.7946 43.664 77.9466 43.664C76.1866 43.664 75.3066 44.792 75.3066 47.048C75.3066 49.304 76.1866 50.432 77.9466 50.432Z" fill="#E2E2E2"/>
</svg>
